# xmcd
#
# Track frame offsets:
#	150
#	20775
#	36348
#	51686
#	73730
#	88547
#	107033
#	126794
#	177578
#	205710
#	225724
#	248169
#
# Disc length: 3702 seconds
#
# Revision: 0
# Processed by: cddbd v1.5.2PL0 Copyright (c) Steve Scherf et al.
# Submitted via: dBpowerAMP V4.0
#
DISCID=b00e740c
DTITLE=Los Lonely Boys - Live at the Blue Cat Blues
DYEAR=2006
DGENRE=Blues
TTITLE0=Heaven (Live)
TTITLE1=Friday Night (Live)
TTITLE2=Dime Mi Amour (Live)
TTITLE3=Baby You're Gonna See (Live)
TTITLE4=I Want You to Feel the Same Way I Do (Live)
TTITLE5=I'm the Man to Beat (Live)
TTITLE6=I Don't Wanna Lose Your Love (Live)
TTITLE7=Cottonfields and Crossroads (Live)
TTITLE8=Señorita (Live)
TTITLE9=I'm Gone (Live)
TTITLE10=My Sweet Sweet Kiss (Live)
TTITLE11=End of a New Beginning (Live)
EXTD=
EXTT0=
EXTT1=
EXTT2=
EXTT3=
EXTT4=
EXTT5=
EXTT6=
EXTT7=
EXTT8=
EXTT9=
EXTT10=
EXTT11=
PLAYORDER=
